<svg width="177" height="62" viewBox="0 0 177 62" fill="none" xmlns="http://www.w3.org/2000/svg">
<path d="M0.0396729 50.0662H6.62655V50.9392H3.81424V59.0538H2.86191V50.9392H0.0396729V50.0662Z" fill="white"/>
<path d="M7.98064 59.0538V50.0662H8.8784V54.0094C9.05696 53.6672 9.31983 53.3944 9.66703 53.1861C10.0142 52.9827 10.4061 52.8785 10.8426 52.8785C11.4923 52.8785 12.0082 53.0918 12.3901 53.5134C12.772 53.935 12.9605 54.5104 12.9605 55.2395V59.0538H12.0627V55.4478C12.0627 54.8824 11.9387 54.4509 11.6907 54.1434C11.4427 53.8358 11.0955 53.687 10.6491 53.687C10.1432 53.687 9.72161 53.8706 9.38433 54.2326C9.04705 54.5947 8.8784 55.051 8.8784 55.6016V59.0538H7.98064Z" fill="white"/>
<path d="M19.0811 57.4269L19.84 57.66C19.3539 58.7214 18.5256 59.2522 17.36 59.2522C16.4672 59.2522 15.748 58.9546 15.1974 58.3544C14.6469 57.7542 14.3691 57.0003 14.3691 56.0827C14.3691 55.1651 14.632 54.4062 15.1528 53.7962C15.6736 53.1861 16.363 52.8835 17.2211 52.8835C18.0098 52.8835 18.6744 53.1514 19.22 53.692C19.7656 54.2326 20.0483 54.9866 20.0731 55.9637V56.2712H15.2867C15.3314 56.9309 15.5347 57.4666 15.9117 57.8782C16.2837 58.2899 16.7747 58.4933 17.3798 58.4933C18.1685 58.4933 18.7339 58.1362 19.0861 57.4269H19.0811ZM17.231 53.6027C16.6755 53.6027 16.2242 53.7862 15.8869 54.1483C15.5496 54.5104 15.3512 55.0064 15.2917 55.6314H19.1307C19.096 54.9568 18.8976 54.4459 18.5355 54.1086C18.1734 53.7714 17.737 53.6027 17.231 53.6027Z" fill="white"/>
<path d="M27.3643 59.2472C26.5757 59.2472 25.8813 59.0438 25.2762 58.6322C24.671 58.2205 24.3238 57.6402 24.2296 56.8862L25.1422 56.7077C25.2266 57.2731 25.4845 57.6997 25.911 57.9874C26.3376 58.275 26.8286 58.4189 27.3891 58.4189C27.9942 58.4189 28.4902 58.2602 28.8672 57.9378C29.2442 57.6154 29.4326 57.1987 29.4326 56.6878C29.4326 56.3357 29.3433 56.043 29.1648 55.8099C28.9862 55.5768 28.7531 55.3982 28.4654 55.2792C28.1778 55.1602 27.8653 55.056 27.523 54.9667C27.1808 54.8774 26.8386 54.7782 26.4914 54.6741C26.1442 54.5699 25.8267 54.431 25.539 54.2723C25.2514 54.1086 25.0182 53.8656 24.8397 53.5382C24.6611 53.2109 24.5718 52.819 24.5718 52.3578C24.5718 51.6138 24.8347 51.0186 25.3654 50.5672C25.8962 50.1158 26.5707 49.8926 27.3842 49.8926C28.1976 49.8926 28.8821 50.1158 29.4128 50.5672C29.9435 51.0186 30.256 51.5939 30.3502 52.2933L29.4376 52.447C29.3632 51.9411 29.14 51.5294 28.7779 51.207C28.4158 50.8846 27.9347 50.7259 27.3445 50.7259C26.8336 50.7259 26.4021 50.8648 26.0549 51.1426C25.7077 51.4203 25.5341 51.8022 25.5341 52.2933C25.5341 52.7843 25.7027 53.1315 26.035 53.3894C26.3674 53.6523 26.7741 53.8358 27.2453 53.9499C27.7214 54.059 28.1976 54.188 28.6787 54.3269C29.1598 54.4658 29.5666 54.7237 29.8989 55.0907C30.2312 55.4578 30.3998 55.9587 30.3998 56.5936C30.3998 57.3971 30.1171 58.0419 29.5467 58.533C28.9763 59.019 28.2522 59.267 27.3693 59.267L27.3643 59.2472Z" fill="white"/>
<path d="M36.4362 57.4269L37.195 57.66C36.709 58.7214 35.8806 59.2522 34.715 59.2522C33.8272 59.2522 33.103 58.9546 32.5525 58.3544C31.997 57.7542 31.7242 57.0003 31.7242 56.0827C31.7242 55.1651 31.987 54.4062 32.5078 53.7962C33.0286 53.1861 33.7181 52.8835 34.5762 52.8835C35.3648 52.8835 36.0294 53.1514 36.575 53.692C37.1206 54.2326 37.4034 54.9866 37.4282 55.9637V56.2712H32.6368C32.6814 56.9309 32.8898 57.4666 33.2618 57.8782C33.6338 58.2899 34.1248 58.4933 34.7349 58.4933C35.5235 58.4933 36.089 58.1362 36.4411 57.4269H36.4362ZM34.5861 53.6027C34.0306 53.6027 33.5842 53.7862 33.2469 54.1483C32.9096 54.5104 32.7112 55.0064 32.6517 55.6314H36.4907C36.456 54.9568 36.2576 54.4459 35.8955 54.1086C35.5334 53.7714 35.097 53.6027 34.591 53.6027H34.5861Z" fill="white"/>
<path d="M43.4298 55.0858V59.0538H42.5667V58.2949H42.5419C42.3782 58.5875 42.1253 58.8157 41.7781 58.9843C41.4309 59.153 41.044 59.2323 40.6174 59.2323C39.9925 59.2323 39.4866 59.0637 39.1046 58.7264C38.7178 58.3891 38.5293 57.9477 38.5293 57.412C38.5293 56.8317 38.7525 56.3605 39.1989 56.0083C39.6453 55.6512 40.2454 55.4726 40.9994 55.4726C41.669 55.4726 42.1798 55.5818 42.537 55.795V55.1006C42.537 54.6394 42.413 54.2773 42.165 54.0144C41.917 53.7515 41.5648 53.6226 41.1134 53.6226C40.3694 53.6226 39.8883 53.9499 39.675 54.5997L38.7773 54.5104C38.9211 53.9946 39.2088 53.5978 39.6354 53.3101C40.0619 53.0224 40.5778 52.8786 41.1779 52.8786C41.8872 52.8786 42.4427 53.072 42.8395 53.4638C43.2363 53.8557 43.4347 54.3963 43.4347 55.0858H43.4298ZM39.437 57.3326C39.437 57.6749 39.5659 57.9576 39.8238 58.1758C40.0818 58.3941 40.4042 58.5032 40.801 58.5032C41.2622 58.5032 41.669 58.3643 42.0211 58.0866C42.3733 57.8088 42.5469 57.4914 42.5469 57.1442V56.5142C42.1947 56.2762 41.7086 56.1571 41.0837 56.1571C40.5678 56.1571 40.1661 56.2662 39.8784 56.4795C39.5907 56.6928 39.4419 56.9805 39.4419 57.3426L39.437 57.3326Z" fill="white"/>
<path d="M45.2352 59.0538V53.072H46.0834V54.059H46.133C46.2867 53.7069 46.5198 53.4291 46.8274 53.2258C47.1349 53.0224 47.4722 52.9182 47.8442 52.9182C48.0475 52.9182 48.2162 52.948 48.3451 53.0075V53.8805C48.2162 53.8309 48.0525 53.8011 47.8442 53.8011C47.3382 53.8011 46.9266 53.9995 46.6091 54.3914C46.2917 54.7832 46.133 55.3189 46.133 55.9984V59.0538H45.2352Z" fill="white"/>
<path d="M51.7874 52.8786C53.1762 52.8786 54.064 53.5234 54.4558 54.8179L53.5829 54.9568C53.3002 54.1086 52.7099 53.687 51.8122 53.687C51.1971 53.687 50.716 53.9102 50.3688 54.3566C50.0216 54.803 49.848 55.3685 49.848 56.0629C49.848 56.7573 50.0166 57.3277 50.3638 57.7691C50.7061 58.2155 51.1872 58.4387 51.8122 58.4387C52.695 58.4387 53.2803 58.0122 53.573 57.1541L54.4211 57.3723C54.2326 57.9725 53.9152 58.4338 53.4688 58.7611C53.0224 59.0885 52.4768 59.2472 51.827 59.2472C50.9541 59.2472 50.2547 58.9446 49.7339 58.3445C49.2131 57.7443 48.9502 56.9805 48.9502 56.0678C48.9502 55.1552 49.2131 54.3715 49.7389 53.7763C50.2646 53.1811 50.9491 52.8835 51.7874 52.8835V52.8786Z" fill="white"/>
<path d="M55.8303 59.0538V50.0662H56.728V54.0094C56.9066 53.6672 57.1695 53.3944 57.5167 53.1861C57.8639 52.9827 58.2557 52.8785 58.6922 52.8785C59.3419 52.8785 59.8578 53.0918 60.2397 53.5134C60.6216 53.935 60.8101 54.5104 60.8101 55.2395V59.0538H59.9123V55.4478C59.9123 54.8824 59.7883 54.4509 59.5403 54.1434C59.2923 53.8408 58.9451 53.687 58.4987 53.687C57.9928 53.687 57.5712 53.8706 57.2339 54.2326C56.8967 54.5947 56.728 55.051 56.728 55.6016V59.0538H55.8303Z" fill="white"/>
<path d="M69.4499 49.9522L72.907 59.0538H71.8902L70.8486 56.2662H66.96L65.9333 59.0538H64.9314L68.3984 49.9522H69.4499ZM68.939 51.0434H68.8894L67.2824 55.4082H70.556L68.939 51.0434Z" fill="white"/>
<path d="M74.4446 50.0662H75.397V59.0538H74.4446V50.0662Z" fill="white"/>
<path d="M80.3123 54.56C80.3123 53.1464 80.719 52.0155 81.5325 51.1574C82.3459 50.3043 83.3776 49.8728 84.6275 49.8728C85.5203 49.8728 86.2941 50.1109 86.9587 50.592C87.6234 51.0731 88.0846 51.7328 88.3525 52.571L87.3754 52.7248C87.1869 52.1494 86.8446 51.6782 86.3536 51.3112C85.8626 50.9442 85.2872 50.7606 84.6275 50.7606C83.6603 50.7606 82.8568 51.1178 82.2219 51.827C81.587 52.5363 81.2646 53.449 81.2646 54.56C81.2646 55.671 81.5821 56.5738 82.217 57.288C82.8518 58.0022 83.6504 58.3594 84.6176 58.3594C85.2674 58.3594 85.8378 58.1808 86.3338 57.8187C86.8248 57.4616 87.177 56.9656 87.3952 56.3406L88.3078 56.5738C88.0747 57.3872 87.6283 58.037 86.9736 58.5181C86.3139 59.0042 85.5451 59.2422 84.6622 59.2422C83.4123 59.2422 82.3757 58.8107 81.5523 57.9526C80.729 57.0946 80.3222 55.9587 80.3222 54.555L80.3123 54.56Z" fill="white"/>
<path d="M89.5776 56.0629C89.5776 55.1205 89.8603 54.3566 90.4208 53.7664C90.9813 53.1762 91.6955 52.8786 92.5585 52.8786C93.4216 52.8786 94.1408 53.1712 94.7013 53.7664C95.2667 54.3566 95.5494 55.1254 95.5494 56.0629C95.5494 57.0003 95.2667 57.7592 94.6963 58.3544C94.1259 58.9496 93.4166 59.2472 92.5585 59.2472C91.7005 59.2472 90.9813 58.9496 90.4208 58.3544C89.8603 57.7592 89.5776 56.9954 89.5776 56.0629ZM90.4754 56.0629C90.4754 56.7374 90.6688 57.3029 91.0557 57.7592C91.4425 58.2106 91.9385 58.4387 92.5585 58.4387C93.1785 58.4387 93.6994 58.2155 94.0813 57.7642C94.4632 57.3128 94.6517 56.7474 94.6517 56.0629C94.6517 55.3784 94.4582 54.7981 94.0813 54.3566C93.6994 53.9102 93.1934 53.687 92.5585 53.687C91.9237 53.687 91.4326 53.9102 91.0507 54.3566C90.6688 54.803 90.4803 55.3685 90.4803 56.0629H90.4754Z" fill="white"/>
<path d="M105.708 55.1899V59.0538H104.81V55.4478C104.81 54.9022 104.691 54.4707 104.448 54.1582C104.21 53.8458 103.872 53.692 103.446 53.692C102.994 53.692 102.608 53.8706 102.29 54.2227C101.973 54.5798 101.814 55.0064 101.814 55.5123V59.0538H100.916V55.4478C100.916 54.9022 100.797 54.4707 100.559 54.1582C100.321 53.8458 99.9837 53.692 99.5571 53.692C99.1008 53.692 98.7189 53.8706 98.4014 54.2227C98.084 54.5798 97.9253 55.0064 97.9253 55.5123V59.0538H97.0275V53.072H97.8757V53.9301H97.9253C98.079 53.6226 98.327 53.3696 98.6643 53.1712C99.0016 52.9728 99.3786 52.8786 99.7902 52.8786C100.237 52.8786 100.628 52.9926 100.966 53.2258C101.303 53.4589 101.526 53.7614 101.64 54.1384C101.844 53.7466 102.126 53.439 102.474 53.2158C102.821 52.9926 103.218 52.8835 103.654 52.8835C104.279 52.8835 104.775 53.0918 105.152 53.5085C105.524 53.9251 105.712 54.4856 105.712 55.1949L105.708 55.1899Z" fill="white"/>
<path d="M112.592 53.7714C113.123 54.3666 113.386 55.1304 113.386 56.0629C113.386 56.9954 113.118 57.7592 112.577 58.3544C112.036 58.9496 111.352 59.2472 110.524 59.2472C110.062 59.2472 109.646 59.153 109.274 58.9645C108.902 58.776 108.619 58.5131 108.421 58.1808V61.623H107.523V53.072H108.346V54.1235H108.371C108.574 53.7218 108.872 53.4142 109.259 53.201C109.646 52.9877 110.072 52.8786 110.544 52.8786C111.382 52.8786 112.066 53.1762 112.597 53.7714H112.592ZM112.478 56.0629C112.478 55.3784 112.284 54.813 111.893 54.3616C111.501 53.9102 111.01 53.687 110.41 53.687C109.809 53.687 109.304 53.9053 108.936 54.3418C108.574 54.7782 108.391 55.3536 108.391 56.0629C108.391 56.7722 108.574 57.3475 108.936 57.789C109.299 58.2304 109.79 58.4486 110.41 58.4486C111.03 58.4486 111.536 58.2205 111.912 57.7642C112.289 57.3078 112.478 56.7374 112.478 56.0629Z" fill="white"/>
<path d="M119.476 55.0858V59.0538H118.618V58.2949H118.594C118.43 58.5875 118.177 58.8157 117.83 58.9843C117.483 59.153 117.096 59.2323 116.669 59.2323C116.044 59.2323 115.538 59.0637 115.156 58.7264C114.769 58.3891 114.576 57.9477 114.576 57.412C114.576 56.8317 114.799 56.3605 115.246 56.0083C115.692 55.6512 116.292 55.4726 117.041 55.4726C117.711 55.4726 118.222 55.5818 118.584 55.795V55.1006C118.584 54.6394 118.46 54.2773 118.212 54.0144C117.964 53.7515 117.612 53.6226 117.16 53.6226C116.416 53.6226 115.935 53.9499 115.722 54.5997L114.824 54.5104C114.968 53.9946 115.256 53.5978 115.682 53.3101C116.109 53.0224 116.624 52.8786 117.225 52.8786C117.934 52.8786 118.489 53.072 118.886 53.4638C119.283 53.8557 119.481 54.3963 119.481 55.0858H119.476ZM115.484 57.3326C115.484 57.6749 115.613 57.9576 115.871 58.1758C116.128 58.3941 116.451 58.5032 116.848 58.5032C117.309 58.5032 117.716 58.3643 118.068 58.0866C118.42 57.8088 118.594 57.4914 118.594 57.1442V56.5142C118.241 56.2762 117.755 56.1571 117.13 56.1571C116.615 56.1571 116.213 56.2662 115.925 56.4795C115.632 56.6928 115.489 56.9805 115.489 57.3426L115.484 57.3326Z" fill="white"/>
<path d="M126.267 55.2445V59.0587H125.369V55.4528C125.369 54.8874 125.245 54.4558 124.997 54.1483C124.749 53.8458 124.402 53.692 123.955 53.692C123.449 53.692 123.028 53.8755 122.691 54.2376C122.353 54.5997 122.185 55.056 122.185 55.6065V59.0587H121.287V53.077H122.135V54.0144H122.185C122.353 53.6622 122.616 53.3894 122.963 53.1861C123.311 52.9877 123.707 52.8835 124.149 52.8835C124.799 52.8835 125.314 53.0968 125.696 53.5184C126.078 53.94 126.267 54.5154 126.267 55.2445Z" fill="white"/>
<path d="M132.938 53.072L129.486 61.5338H128.588L129.679 58.8752L127.135 53.072H128.137L130.165 57.8088L132.025 53.072H132.938Z" fill="white"/>
<path fill-rule="evenodd" clip-rule="evenodd" d="M39.0402 17.0326C39.9801 18.3733 40.481 19.9754 40.4835 21.6127C40.4731 23.2634 39.9573 24.8699 39.0104 26.2186C38.063 27.5677 36.7238 28.5894 35.1714 29.1549C35.6326 30.3949 35.6773 31.744 35.2954 33.0088C34.9134 34.2736 34.1347 35.3797 33.0683 36.1584C32.0019 36.9371 30.7123 37.3488 29.393 37.329C28.0736 37.3091 26.7989 36.8578 25.7573 36.0493C24.3486 38.0134 22.3547 39.4766 20.0632 40.2355C17.7717 40.9944 15.2966 41.0043 12.9952 40.2653C10.6938 39.5262 8.68992 38.0779 7.2664 36.1237C5.84784 34.1744 5.084 31.8184 5.084 29.4029C5.084 28.6738 5.15345 27.9496 5.29233 27.2304C3.73985 26.6798 2.39569 25.6581 1.44833 24.309C0.500967 22.9598 0 21.3478 0 19.7011C0.00992 18.0544 0.520801 16.4474 1.47312 15.1032C2.42544 13.7541 3.76464 12.7274 5.31216 12.1619C4.85088 10.9219 4.80625 9.56784 5.18321 8.30304C5.56017 7.03824 6.33888 5.93217 7.40528 5.14849C8.47168 4.36481 9.76128 3.95312 11.0806 3.968C12.4 3.98288 13.6797 4.42928 14.7213 5.23776C16.1349 3.27856 18.1387 1.81537 20.4352 1.06145C22.7317 0.307532 25.2117 0.302557 27.5131 1.04656C29.8146 1.79056 31.8184 3.2488 33.2419 5.20304C34.6654 7.15728 35.4293 9.51328 35.4293 11.9338C35.4293 12.6629 35.3549 13.392 35.216 14.1112C36.7586 14.6667 38.0978 15.6885 39.0402 17.0326ZM15.9166 17.8659L24.7752 21.9133L33.7181 14.0815C33.847 13.4367 33.9115 12.777 33.9066 12.1173C33.9066 9.98448 33.2221 7.90625 31.9573 6.19009C30.6925 4.47393 28.9118 3.20417 26.8733 2.57425C24.8347 1.94433 22.6474 1.97905 20.6336 2.68337C18.6198 3.38273 16.8789 4.712 15.6736 6.4728L14.1856 14.1757L15.9166 17.8659ZM6.7456 27.2453C6.61664 27.9 6.5472 28.5696 6.55216 29.2392C6.55216 31.3819 7.23664 33.4651 8.51136 35.1912C9.78608 36.9123 11.5766 38.1821 13.6202 38.812C15.6686 39.4419 17.861 39.3973 19.8846 38.688C21.9034 37.9787 23.6443 36.6395 24.8496 34.8688L26.3227 27.1808L24.3536 23.4162L15.4603 19.3638L6.74064 27.2403L6.7456 27.2453ZM12.7621 13.3523L6.69104 11.9189C6.33392 10.9467 6.30416 9.88528 6.60176 8.89328C6.89936 7.89632 7.50944 7.02832 8.34272 6.41328C9.176 5.79824 10.1878 5.47089 11.2245 5.47585C12.2611 5.48081 13.268 5.82304 14.0914 6.448L12.7621 13.3523ZM6.16528 13.3622C4.83104 13.8136 3.67536 14.6667 2.852 15.8026C2.02864 16.9434 1.57728 18.3074 1.56736 19.716C1.56736 21.075 1.97904 22.3994 2.74784 23.5203C3.51664 24.6413 4.61279 25.4944 5.88255 25.9805L14.3989 18.2826L12.8365 14.9395L6.16528 13.3672V13.3622ZM29.269 35.841C28.2373 35.836 27.2304 35.4987 26.407 34.8738L26.412 34.8688L27.7314 27.9992L33.7974 29.4128C34.1496 30.385 34.1794 31.4464 33.8818 32.4335C33.5842 33.4205 32.9741 34.2885 32.1408 34.9035C31.3075 35.5186 30.3006 35.8459 29.269 35.841ZM27.6421 26.407L34.3182 27.9695C35.6525 27.5231 36.8082 26.6699 37.6365 25.5291C38.4598 24.3883 38.9112 23.0243 38.9211 21.6157C38.9211 20.2616 38.5045 18.9373 37.7357 17.8213C36.9669 16.7053 35.8757 15.8522 34.6059 15.371L25.8714 23.0194L27.6421 26.412V26.407Z" fill="white"/>
<path d="M56.6035 28.8275L57.412 28.7432L57.4666 30.3899C55.6661 30.6627 53.8458 30.8115 52.0254 30.8363C50.0166 30.8363 48.5931 30.256 47.7549 29.0904C46.9166 27.9298 46.5 26.1194 46.5 23.6642C46.5 18.7736 48.4443 16.3283 52.333 16.3283C54.2178 16.3283 55.6214 16.8541 56.544 17.9056C57.4715 18.9571 57.9328 20.6038 57.9378 22.8458L57.8286 24.4379H48.6229C48.6229 25.9805 48.9006 27.1262 49.4611 27.8702C50.0216 28.6142 50.9888 28.9862 52.3726 28.9862C53.7614 28.9862 55.1701 28.9366 56.5986 28.8275H56.6035ZM55.8496 22.7763C55.8496 21.0651 55.5768 19.8549 55.0262 19.1505C54.4806 18.4462 53.5878 18.0891 52.3478 18.0891C51.1078 18.0891 50.1803 18.4611 49.5554 19.2051C48.9304 19.9491 48.613 21.1395 48.5931 22.7763H55.8446H55.8496Z" fill="white"/>
<path d="M60.8642 30.7322V12.3752H62.9573V30.7272H60.8642V30.7322Z" fill="white"/>
<path d="M76.131 20.8221V27.8554C76.131 28.5597 77.867 28.525 77.867 28.525L77.7629 30.375C76.2898 30.375 75.0746 30.499 74.3454 29.7898C72.7682 30.4891 71.057 30.8462 69.3259 30.8363C68.0462 30.8363 67.0691 30.4742 66.3946 29.7451C65.725 29.021 65.3877 27.9744 65.3877 26.6154C65.3877 25.2563 65.7299 24.2544 66.4194 23.6146C67.1088 22.9747 68.1851 22.5829 69.6533 22.439L74.033 22.0224V20.8221C74.033 19.8797 73.8296 19.2002 73.4229 18.7835C73.1997 18.5752 72.9368 18.4115 72.6491 18.3074C72.3614 18.2032 72.0539 18.1586 71.7464 18.1734H66.2507V16.3333H71.6075C73.1898 16.3333 74.3355 16.6954 75.0547 17.4245C75.769 18.1486 76.1261 19.2845 76.1261 20.827L76.131 20.8221ZM67.5354 26.5112C67.5354 28.2224 68.2397 29.0805 69.6533 29.0805C70.928 29.0805 72.1928 28.8622 73.3931 28.4357L74.033 28.2125V23.6096L69.9112 24.0014C69.073 24.0758 68.4678 24.3189 68.0958 24.7256C67.7238 25.1323 67.5354 25.7275 67.5354 26.5112Z" fill="white"/>
<path d="M84.2952 18.2032C82.2666 18.2032 81.2547 18.9075 81.2547 20.3211C81.2547 20.9758 81.4878 21.4322 81.959 21.7C82.4302 21.9678 83.4917 22.2456 85.1384 22.5382C86.795 22.8309 87.9656 23.2326 88.655 23.7534C89.3445 24.2742 89.6867 25.2464 89.6867 26.6798C89.6867 28.1133 89.2254 29.1648 88.3078 29.8344C87.3853 30.504 86.0411 30.8363 84.2754 30.8413C83.1246 30.8413 79.2707 30.4147 79.2707 30.4147L79.3848 28.6043C81.597 28.8176 83.1941 28.9714 84.2754 28.9714C85.3566 28.9714 86.175 28.7978 86.7454 28.4555C87.3109 28.1133 87.5936 27.5379 87.5936 26.7245C87.5936 25.911 87.3605 25.3654 86.8694 25.0778C86.3784 24.7901 85.3269 24.5173 83.6901 24.2544C82.0533 23.9915 80.8877 23.6096 80.2032 23.1086C79.5138 22.6077 79.1715 21.6752 79.1715 20.3162C79.1715 18.9571 79.6427 17.9651 80.6099 17.3054C81.5771 16.6458 82.7626 16.3283 84.196 16.3283C85.3318 16.3283 89.2651 16.616 89.2651 16.616V18.4413C87.1869 18.347 85.4906 18.2032 84.3002 18.2032H84.2952Z" fill="white"/>
<path d="M99.7704 18.4214H95.3362V25.0877C95.3362 26.6848 95.4502 27.7363 95.6834 28.2373C95.9165 28.7432 96.467 28.9912 97.34 28.9912L99.825 28.8226L99.9638 30.5536C99.0214 30.7272 98.0741 30.8314 97.1168 30.8611C95.6685 30.8611 94.6616 30.509 94.1061 29.7997C93.5456 29.0904 93.2678 27.7462 93.2728 25.7523V18.4165H91.2987V16.6061H93.2778V12.3355H95.3411V16.6061H99.7654V18.4165L99.7704 18.4214Z" fill="white"/>
<path d="M102.677 14.8304V12.4H104.77V14.8304H102.677ZM102.677 30.7322V16.616H104.77V30.7322H102.677Z" fill="white"/>
<path d="M113.832 16.3333C114.879 16.3779 115.915 16.492 116.947 16.6706L117.616 16.7549L117.532 18.4562C116.441 18.3173 115.34 18.233 114.239 18.2082C112.656 18.2082 111.585 18.5851 111.02 19.339C110.454 20.093 110.172 21.4867 110.167 23.5253C110.167 25.5638 110.429 26.9824 110.96 27.781C111.491 28.5795 112.597 28.9763 114.278 28.9813L117.572 28.7333L117.656 30.4643C116.372 30.6826 115.077 30.8115 113.777 30.8562C111.605 30.8562 110.102 30.2957 109.274 29.1797C108.445 28.0637 108.034 26.1789 108.034 23.5302C108.034 20.8816 108.48 19.0216 109.373 17.9502C110.266 16.8789 111.754 16.3432 113.832 16.3432V16.3333Z" fill="white"/>
</svg>
