<svg width="32" height="32" viewBox="0 0 32 32" fill="none" xmlns="http://www.w3.org/2000/svg">
<g clip-path="url(#clip0_4321_151142)">
<path fill-rule="evenodd" clip-rule="evenodd" d="M0.5 16V14C6.02285 14 10.5 9.52285 10.5 4H12.5C12.5 9.52285 16.9772 14 22.5 14V16C16.9772 16 12.5 20.4772 12.5 26H10.5C10.5 20.4772 6.02285 16 0.5 16ZM11.5 21.1966C12.7093 18.431 14.931 16.2093 17.6966 15C14.931 13.7907 12.7093 11.569 11.5 8.80342C10.2907 11.569 8.06895 13.7907 5.30342 15C8.06895 16.2093 10.2907 18.431 11.5 21.1966Z" fill="#101C3F"/>
<path fill-rule="evenodd" clip-rule="evenodd" d="M22.5 7V5C24.7091 5 26.5 3.20914 26.5 1H28.5C28.5 3.20914 30.2909 5 32.5 5V7C30.2909 7 28.5 8.79086 28.5 11H26.5C26.5 8.79086 24.7091 7 22.5 7ZM27.5 7.68221C27.9431 7.01582 28.5158 6.44307 29.1822 6C28.5158 5.55693 27.9431 4.98418 27.5 4.31779C27.0569 4.98418 26.4842 5.55693 25.8178 6C26.4842 6.44307 27.0569 7.01582 27.5 7.68221Z" fill="#0B64DD"/>
<path fill-rule="evenodd" clip-rule="evenodd" d="M17.5 26V24C20.2614 24 22.5 21.7614 22.5 19H24.5C24.5 21.7614 26.7386 24 29.5 24V26C26.7386 26 24.5 28.2386 24.5 31H22.5C22.5 28.2386 20.2614 26 17.5 26ZM23.5 27.3924C24.0901 26.4131 24.9131 25.5901 25.8924 25C24.9131 24.4099 24.0901 23.5869 23.5 22.6076C22.9099 23.5869 22.0869 24.4099 21.1076 25C22.0869 25.5901 22.9099 26.4131 23.5 27.3924Z" fill="#101C3F"/>
</g>
<defs>
<clipPath id="clip0_4321_151142">
<rect width="32" height="32" fill="white"/>
</clipPath>
</defs>
</svg>
