<svg width="32" height="32" viewBox="0 0 32 32" fill="none" xmlns="http://www.w3.org/2000/svg">
<path fill-rule="evenodd" clip-rule="evenodd" d="M12.8621 6H6C4.34315 6 3 7.34315 3 9V24.1158L0.590515 31H31.4095L29 24.1158V19.6552H27V23H5V9C5 8.44772 5.44772 8 6 8H12.8621V6ZM4.80948 25H27.1905L28.5905 29H3.40948L4.80948 25Z" fill="#101C3F"/>
<path fill-rule="evenodd" clip-rule="evenodd" d="M21.4471 3.18838C21.0542 2.57088 20.1527 2.57088 19.7598 3.18838L12.5861 14.4614C12.1624 15.1271 12.6406 15.9982 13.4297 15.9982H27.7772C28.5663 15.9982 29.0445 15.1271 28.6208 14.4614L21.4471 3.18838ZM18.0725 2.11463C19.2513 0.262136 21.9556 0.26213 23.1344 2.11463L30.3082 13.3876C31.5791 15.3848 30.1444 17.9982 27.7772 17.9982H13.4297C11.0625 17.9982 9.62782 15.3848 10.8987 13.3876L18.0725 2.11463Z" fill="#0B64DD"/>
<path fill-rule="evenodd" clip-rule="evenodd" d="M19.6034 10.508V6.18118H21.6034V10.508H19.6034Z" fill="#0B64DD"/>
<path fill-rule="evenodd" clip-rule="evenodd" d="M19.6034 13.5986V11.7442H21.6034V13.5986H19.6034Z" fill="#0B64DD"/>
</svg>
